# xmcd
#
# Track frame offsets:
#	150
#	22201
#	30575
#	47133
#	63208
#	84337
#	112823
#	132567
#	148451
#	164423
#	181522
#	191340
#	214517
#	238363
#	249712
#	256705
#	309370
#
# Disc length: 4401 seconds
#
# Revision: 0
# Processed by: cddbd v1.5.1PL0 Copyright (c) Steve Scherf et al.
# Submitted via: dBpowerAMP V4.0
#
DISCID=ea112f11
DTITLE=Charly Schreckschuss Band - 20 Jahre
DYEAR=1900
DGENRE=Blues
TTITLE0=Hold me baby
TTITLE1=Alles was du hast
TTITLE2=Ach Luise
TTITLE3=Hör mal´n beten to
TTITLE4=Information
TTITLE5=Warum
TTITLE6=Ich werd ihn nicht wieder los
TTITLE7=Ich bin verrückt nach Dir
TTITLE8=Kompliziert
TTITLE9=Charly´s Boogie
TTITLE10=Ileosakralgelenkblockade
TTITLE11=Gheimratsecken-Blues
TTITLE12=Madame Goulou
TTITLE13=Kaninchen in Weinsosse
TTITLE14=Auf Wiederhörn
TTITLE15=Jeden Tag hab ich den Blues
TTITLE16=a
EXTD=
EXTT0=
EXTT1=
EXTT2=
EXTT3=
EXTT4=
EXTT5=
EXTT6=
EXTT7=
EXTT8=
EXTT9=
EXTT10=
EXTT11=
EXTT12=
EXTT13=
EXTT14=
EXTT15=
EXTT16=
PLAYORDER=
